<svg xmlns="http://www.w3.org/2000/svg" viewBox="0 0 741.62 709.32"><defs><style>.cls-1{fill:#404040;}</style></defs><g id="Capa_2" data-name="Capa 2"><g id="OBJECTS"><path class="cls-1" d="M440.75.75c-119.66-8-226.5,49.08-288.68,139.31-23.54,34.16,2,80.79,43.45,80.79h0a51.18,51.18,0,0,0,42.29-21.79,218.88,218.88,0,0,1,188.65-94.91c111.63,4,204,93.84,210.73,205.33,7.73,127.3-93.14,232.87-218.75,232.87A219,219,0,0,1,202.82,362.26l-83.49,83.48c48.26,117.73,164,200.62,299.11,200.62,186.11,0,335.43-157.24,322.38-346.14C729.8,140.64,600.35,11.46,440.75.75Z"/><path class="cls-1" d="M475.66,161.91H323.46a15.81,15.81,0,0,0-11.18,27l32,32L39.78,525.37a135.8,135.8,0,0,0-7.48,184l400.2-400.2,32,32c10,10,27,2.9,27-11.18V177.72A15.81,15.81,0,0,0,475.66,161.91Z"/></g></g></svg>