<svg xmlns="http://www.w3.org/2000/svg" xmlns:xlink="http://www.w3.org/1999/xlink" viewBox="0 0 1605.57 430.05"><defs><style>.cls-1{isolation:isolate;}.cls-2{font-size:170.07px;fill:#404040;font-family:Poppins-Bold, Poppins;font-weight:700;}.cls-3{fill:url(#Degradado_sin_nombre_7);}.cls-4{fill:url(#linear-gradient);}.cls-5{fill:url(#Degradado_sin_nombre_2);}.cls-6{fill:url(#linear-gradient-2);}.cls-7{fill:url(#Degradado_sin_nombre_11);}.cls-8{mix-blend-mode:multiply;fill:url(#Degradado_sin_nombre_8);}</style><linearGradient id="Degradado_sin_nombre_7" x1="304.39" y1="251.39" x2="53.59" y2="9.09" gradientUnits="userSpaceOnUse"><stop offset="0" stop-color="#007bff"/><stop offset="0.99" stop-color="#007bff"/></linearGradient><linearGradient id="linear-gradient" x1="344.36" y1="271.14" x2="344.1" y2="270.93" gradientUnits="userSpaceOnUse"><stop offset="0" stop-color="#ff2300"/><stop offset="0.99" stop-color="#ffaf55"/></linearGradient><linearGradient id="Degradado_sin_nombre_2" x1="426.57" y1="187.49" x2="-91.7" y2="405.34" gradientUnits="userSpaceOnUse"><stop offset="0" stop-color="#6610f2"/><stop offset="0.99" stop-color="#6f42c1"/></linearGradient><linearGradient id="linear-gradient-2" x1="344.5" y1="158.96" x2="343.83" y2="159.24" gradientUnits="userSpaceOnUse"><stop offset="0" stop-color="#15eeff"/><stop offset="0.99" stop-color="#5569ff"/></linearGradient><linearGradient id="Degradado_sin_nombre_11" x1="343.93" y1="344.37" x2="190.9" y2="467.64" gradientUnits="userSpaceOnUse"><stop offset="0" stop-color="#28a745"/><stop offset="0.99" stop-color="#20c997"/></linearGradient><linearGradient id="Degradado_sin_nombre_8" x1="232.84" y1="147.5" x2="298.73" y2="220.41" gradientUnits="userSpaceOnUse"><stop offset="0" stop-color="#fff"/><stop offset="1" stop-color="#007bff"/></linearGradient></defs><g class="cls-1"><g id="Capa_2" data-name="Capa 2"><g id="OBJECTS"><text class="cls-2" transform="translate(419.87 317.8)">Solutions Dev</text><path class="cls-3" d="M343.84,159,222.76,215,65.31,142.21A112.56,112.56,0,0,1,0,40V0Z"/><polygon class="cls-4" points="344.34 270.79 344.34 271.26 343.84 271.04 344.34 270.79"/><path class="cls-5" d="M344.34,158.8v112L0,430.05V390A112.56,112.56,0,0,1,65.31,287.85Z"/><polygon class="cls-6" points="344.34 158.79 344.34 159.26 343.84 159.01 344.34 158.79"/><path class="cls-7" d="M344.34,399.48v30.57H130.8l151.64-70.14C311.33,346.55,344.34,367.65,344.34,399.48Z"/><polygon class="cls-8" points="242.53 112.15 172.11 191.61 222.76 215.04 343.84 159.01 242.53 112.15"/></g></g></g></svg>