<svg xmlns="http://www.w3.org/2000/svg" viewBox="0 0 1777.72 689.43"><defs><style>.cls-1{fill:#404040;}</style></defs><g id="Capa_2" data-name="Capa 2"><g id="OBJECTS"><path class="cls-1" d="M1069.91,435.12h-102l-15.13,46.24H852.12L964.05,175.42h110.62l111.48,305.94H1085ZM1046.58,363l-27.66-85.12L991.27,363Z"/><path class="cls-1" d="M1301.52,175.42V347.83q0,21.18,9.3,33.49t30,12.31q20.75,0,30.68-12.31t9.94-33.49V175.42H1477V347.83q0,43.65-18.14,74.54a116.2,116.2,0,0,1-49.7,46.45q-31.55,15.57-70.43,15.56t-68.92-15.56q-30-15.56-46.89-46.23T1206,347.83V175.42Z"/><path class="cls-1" d="M1672.28,481.36,1614.81,371.6h-.43V481.36h-95.93V175.42h142.6q37.15,0,63.52,13.17t39.54,35.87q13.17,22.69,13.18,51.21,0,30.69-17.07,54.44t-49,34.14l66.55,117.11Zm-57.9-173.71h38q13.83,0,20.74-6.27t6.92-19.66q0-12.11-7.13-19t-20.53-6.91h-38Z"/><path class="cls-1" d="M428.39.73c-116.3-7.8-220.15,47.7-280.58,135.4-22.89,33.21,1.9,78.53,42.22,78.53h0a49.78,49.78,0,0,0,41.12-21.18A212.74,212.74,0,0,1,414.5,101.23c108.5,3.88,198.24,91.2,204.82,199.58,7.52,123.72-90.52,226.33-212.62,226.33a212.87,212.87,0,0,1-209.57-175L116,433.24c46.9,114.43,159.41,195,290.71,195,180.89,0,326-152.83,313.35-336.44C709.34,136.69,583.51,11.14,428.39.73Z"/><path class="cls-1" d="M462.32,157.37H314.38c-13.69,0-20.54,16.56-10.86,26.24l31.09,31.09-296,295.94a132,132,0,0,0-7.27,178.79l389-389,31.08,31.08a15.37,15.37,0,0,0,26.24-10.86V172.74A15.37,15.37,0,0,0,462.32,157.37Z"/></g></g></svg>