<svg xmlns="http://www.w3.org/2000/svg" id="Capa_2" data-name="Capa 2" viewBox="0 0 835.14 673.97"><defs><style>.cls-2{fill:#304ba8}</style></defs><g id="OBJECTS"><path d="M452.83.38C392.5-3.67 338.64 25.12 307.29 70.61c-11.87 17.22.99 40.73 21.9 40.73 8.47 0 16.53-4.01 21.33-10.98 20.61-29.97 55.66-49.26 95.11-47.85 56.28 2.01 102.83 47.31 106.24 103.52 3.9 64.18-46.96 117.4-110.29 117.4-54.33 0-99.45-39.15-108.71-90.8l-42.09 42.09c24.33 59.35 82.69 101.14 150.8 101.14 93.83 0 169.11-79.27 162.53-174.51C598.56 70.9 533.29 5.78 452.83.38Z" class="cls-2"/><path d="M470.43 81.63h-76.74c-7.1 0-10.66 8.59-5.64 13.61l16.13 16.13-153.51 153.51c-25.21 25.21-26.86 65.56-3.77 92.74l201.76-201.76 16.13 16.13c5.02 5.02 13.61 1.47 13.61-5.64V89.61c0-4.4-3.57-7.97-7.97-7.97Z" style="fill:#fd7e14"/><path d="M129.26 482.35v129.26H89.58V594c-4.04 5.72-9.5 10.31-16.4 13.78-6.9 3.47-14.54 5.21-22.92 5.21-9.93 0-18.69-2.2-26.29-6.6-7.6-4.4-13.49-10.77-17.68-19.11C2.1 578.94.01 569.14.01 557.86v-75.52h39.68v70.42c0 8.68 2.24 15.42 6.73 20.22 4.48 4.8 10.52 7.21 18.1 7.21s13.84-2.4 18.33-7.21c4.48-4.8 6.73-11.54 6.73-20.22v-70.42h39.68ZM273.22 495.67c9.1 9.81 13.65 23.28 13.65 40.42v75.52h-39.68v-70.42c0-8.68-2.25-15.42-6.76-20.22-4.51-4.8-10.57-7.21-18.18-7.21s-13.68 2.4-18.18 7.21c-4.51 4.8-6.76 11.54-6.76 20.22v70.42h-39.68V482.35h39.68v17.14c4.04-5.71 9.48-10.23 16.33-13.55 6.84-3.32 14.54-4.98 23.09-4.98 15.24 0 27.41 4.9 36.51 14.71ZM317.05 462.48c-4.42-4.1-6.62-9.18-6.62-15.22s2.21-11.35 6.62-15.46c4.42-4.1 10.11-6.16 17.08-6.16s12.43 2.06 16.85 6.16c4.42 4.11 6.62 9.26 6.62 15.46s-2.21 11.12-6.62 15.22c-4.42 4.11-10.03 6.16-16.85 6.16s-12.67-2.05-17.08-6.16Zm36.71 19.87v129.26h-39.68V482.35h39.68ZM382.22 511.77c5.03-10.04 11.87-17.76 20.54-23.16 8.66-5.4 18.33-8.11 29.01-8.11 9.13 0 17.13 1.85 24.02 5.56 6.88 3.71 12.18 8.57 15.9 14.59v-18.3h39.68v129.26h-39.68v-18.3c-3.87 6.02-9.25 10.89-16.13 14.59-6.89 3.71-14.89 5.56-24.02 5.56-10.52 0-20.11-2.74-28.78-8.22-8.67-5.48-15.51-13.28-20.54-23.4-5.03-10.11-7.54-21.81-7.54-35.09s2.51-24.94 7.54-34.98Zm81.49 11.72c-5.5-5.73-12.2-8.6-20.1-8.6s-14.61 2.83-20.1 8.48c-5.5 5.66-8.25 13.44-8.25 23.36s2.75 17.78 8.25 23.59c5.5 5.81 12.2 8.72 20.1 8.72s14.6-2.87 20.1-8.6c5.5-5.73 8.25-13.56 8.25-23.47s-2.75-17.74-8.25-23.47ZM596.54 486.08c6.81-3.72 14.77-5.58 23.9-5.58 10.68 0 20.34 2.71 29.01 8.14 8.66 5.43 15.51 13.18 20.54 23.25 5.03 10.08 7.54 21.78 7.54 35.11s-2.52 25.08-7.54 35.23c-5.03 10.16-11.88 17.99-20.54 23.49-8.67 5.5-18.33 8.26-29.01 8.26-8.97 0-16.9-1.86-23.79-5.58-6.89-3.72-12.26-8.52-16.13-14.42v80h-39.68V482.36h39.68v18.37c3.87-6.05 9.2-10.93 16.01-14.65Zm32.18 37.3c-5.5-5.65-12.28-8.48-20.34-8.48s-14.61 2.87-20.1 8.6c-5.5 5.73-8.25 13.56-8.25 23.47s2.75 17.74 8.25 23.47 12.2 8.6 20.1 8.6 14.64-2.91 20.22-8.72c5.58-5.81 8.37-13.67 8.37-23.59s-2.75-17.7-8.25-23.36ZM754.15 486.08c6.81-3.72 14.77-5.58 23.9-5.58 10.68 0 20.34 2.71 29.01 8.14 8.66 5.43 15.51 13.18 20.54 23.25 5.03 10.08 7.54 21.78 7.54 35.11s-2.52 25.08-7.54 35.23c-5.03 10.16-11.88 17.99-20.54 23.49-8.67 5.5-18.33 8.26-29.01 8.26-8.97 0-16.9-1.86-23.79-5.58-6.89-3.72-12.26-8.52-16.13-14.42v80h-39.68V482.36h39.68v18.37c3.87-6.05 9.2-10.93 16.01-14.65Zm32.39 37.3c-5.5-5.65-12.28-8.48-20.34-8.48s-14.61 2.87-20.1 8.6c-5.5 5.73-8.25 13.56-8.25 23.47s2.75 17.74 8.25 23.47 12.2 8.6 20.1 8.6 14.64-2.91 20.22-8.72c5.58-5.81 8.37-13.67 8.37-23.59s-2.75-17.7-8.25-23.36Z" class="cls-2"/></g></svg>