<svg xmlns="http://www.w3.org/2000/svg" id="Capa_2" data-name="Capa 2" viewBox="0 0 1619.72 379.91"><defs><style>.cls-2{fill:#304ba8}</style></defs><g id="OBJECTS"><path d="M236.06.4C171.98-3.9 114.75 26.69 81.45 75.02c-12.61 18.3 1.05 43.27 23.27 43.27 9 0 17.56-4.26 22.66-11.67 21.9-31.84 59.13-52.33 101.04-50.83 59.79 2.13 109.24 50.26 112.87 109.98 4.14 68.18-49.88 124.72-117.17 124.72-57.72 0-105.65-41.6-115.48-96.46l-44.71 44.71c25.85 63.05 87.84 107.45 160.2 107.45 99.68 0 179.66-84.22 172.67-185.39C390.88 75.32 321.55 6.14 236.06.4Z" class="cls-2"/><path d="M254.76 86.72h-81.52c-7.54 0-11.32 9.12-5.99 14.46l17.13 17.13L21.3 281.39c-26.79 26.79-28.53 69.65-4.01 98.52l214.35-214.35 17.13 17.13c5.33 5.33 14.46 1.56 14.46-5.99V95.18c0-4.68-3.79-8.47-8.47-8.47Z" style="fill:#fd7e14"/><path d="M638.28 98.99v180h-55v-24.52c-5.59 7.96-13.16 14.36-22.71 19.19-9.56 4.84-20.13 7.26-31.72 7.26-13.74 0-25.88-3.06-36.4-9.19-10.52-6.13-18.68-15-24.48-26.61-5.8-11.61-8.7-25.27-8.7-40.97V98.99h54v97.96c0 12.07 3.14 21.45 9.44 28.13 6.29 6.68 14.76 10.02 25.4 10.02s19.42-3.34 25.72-10.02c6.29-6.68 9.44-16.05 9.44-28.13V98.99h55ZM838.39 117.54c12.59 13.66 18.89 32.42 18.89 56.29v105.16h-55v-97.96c0-12.07-3.12-21.44-9.35-28.13-6.24-6.68-14.62-10.02-25.15-10.02s-18.92 3.34-25.15 10.02c-6.24 6.68-9.35 16.06-9.35 28.13v97.96h-55v-180h55v23.87c5.6-7.95 13.13-14.24 22.6-18.87 9.47-4.62 20.13-6.94 31.97-6.94 21.1 0 37.94 6.83 50.54 20.48ZM900.07 71.1c-6.14-5.71-9.21-12.77-9.21-21.18s3.07-15.79 9.21-21.5c6.14-5.71 14.06-8.57 23.76-8.57s17.3 2.86 23.44 8.57c6.14 5.71 9.21 12.88 9.21 21.5s-3.07 15.47-9.21 21.18c-6.14 5.71-13.96 8.57-23.44 8.57s-17.62-2.85-23.76-8.57Zm51.21 27.89v180h-55v-180h55ZM991.29 139.96c6.97-13.98 16.45-24.73 28.47-32.26 12.01-7.53 25.41-11.29 40.2-11.29 12.65 0 23.75 2.58 33.29 7.74s16.89 11.94 22.03 20.32V98.99h55v180h-55v-25.48c-5.36 8.39-12.82 15.16-22.35 20.32-9.54 5.16-20.64 7.74-33.29 7.74-14.58 0-27.88-3.82-39.88-11.45-12.01-7.63-21.5-18.49-28.47-32.58-6.97-14.08-10.45-30.37-10.45-48.87s3.48-34.73 10.45-48.71Zm112.78 16.01c-7.65-7.97-16.97-11.96-27.96-11.96s-20.32 3.94-27.96 11.8c-7.65 7.87-11.48 18.7-11.48 32.49s3.82 24.73 11.48 32.81c7.65 8.08 16.97 12.12 27.96 12.12s20.31-3.99 27.96-11.96c7.65-7.97 11.48-18.86 11.48-32.65s-3.83-24.68-11.48-32.65ZM1288.47 104.15c9.43-5.16 20.47-7.75 33.13-7.75 14.8 0 28.19 3.77 40.2 11.3 12.01 7.54 21.49 18.29 28.46 32.28 6.97 13.99 10.45 30.24 10.45 48.75s-3.49 34.81-10.45 48.91c-6.97 14.1-16.46 24.97-28.46 32.6-12.01 7.64-25.41 11.46-40.2 11.46-12.44 0-23.43-2.58-32.97-7.75s-17-11.83-22.35-20.01v111.05h-55v-266h55v25.5c5.36-8.39 12.75-15.17 22.19-20.34Zm45.13 51.65c-7.65-7.86-17.08-11.8-28.29-11.8s-20.32 3.99-27.96 11.96c-7.65 7.98-11.48 18.86-11.48 32.65s3.82 24.68 11.48 32.65c7.65 7.98 16.97 11.96 27.96 11.96s20.37-4.04 28.13-12.12c7.76-8.08 11.64-19.02 11.64-32.81s-3.83-24.62-11.48-32.49ZM1507.47 104.15c9.43-5.16 20.47-7.75 33.13-7.75 14.8 0 28.19 3.77 40.2 11.3 12.01 7.54 21.49 18.29 28.46 32.28 6.97 13.99 10.45 30.24 10.45 48.75s-3.49 34.81-10.45 48.91c-6.97 14.1-16.46 24.97-28.46 32.6-12.01 7.64-25.41 11.46-40.2 11.46-12.44 0-23.43-2.58-32.97-7.75s-17-11.83-22.35-20.01v111.05h-55v-266h55v25.5c5.36-8.39 12.75-15.17 22.19-20.34Zm45.64 51.65c-7.65-7.86-17.08-11.8-28.29-11.8s-20.32 3.99-27.96 11.96c-7.65 7.98-11.48 18.86-11.48 32.65s3.82 24.68 11.48 32.65c7.65 7.98 16.97 11.96 27.96 11.96s20.37-4.04 28.13-12.12c7.76-8.08 11.64-19.02 11.64-32.81s-3.83-24.62-11.48-32.49Z" class="cls-2"/></g></svg>