<svg xmlns="http://www.w3.org/2000/svg" id="Capa_2" data-name="Capa 2" viewBox="0 0 1160.44 345.13"><defs><style>.cls-1{fill:#304ba8}</style></defs><g id="OBJECTS"><path d="M179 79.13v180h-55v-24.52c-5.59 7.96-13.16 14.36-22.71 19.19-9.56 4.84-20.13 7.26-31.72 7.26-13.74 0-25.88-3.06-36.4-9.19-10.52-6.13-18.68-15-24.48-26.61-5.8-11.61-8.7-25.27-8.7-40.97V79.13h54v97.96c0 12.07 3.14 21.45 9.44 28.13 6.29 6.68 14.76 10.02 25.4 10.02s19.42-3.34 25.72-10.02c6.29-6.68 9.44-16.05 9.44-28.13V79.13h55ZM379.11 97.68C391.7 111.34 398 130.1 398 153.97v105.16h-55v-97.96c0-12.07-3.12-21.44-9.35-28.13-6.24-6.68-14.62-10.02-25.15-10.02s-18.92 3.34-25.15 10.02c-6.24 6.68-9.35 16.06-9.35 28.13v97.96h-55v-180h55V103c5.6-7.95 13.13-14.24 22.6-18.87 9.47-4.62 20.13-6.94 31.97-6.94 21.1 0 37.94 6.83 50.54 20.48ZM440.79 51.24c-6.14-5.71-9.21-12.77-9.21-21.18s3.07-15.79 9.21-21.5c6.14-5.71 14.06-8.57 23.76-8.57s17.3 2.86 23.44 8.57c6.14 5.71 9.21 12.88 9.21 21.5s-3.07 15.47-9.21 21.18c-6.14 5.71-13.96 8.57-23.44 8.57s-17.62-2.85-23.76-8.57ZM492 79.13v180h-55v-180h55ZM532.01 120.1c6.97-13.98 16.45-24.73 28.47-32.26 12.01-7.53 25.41-11.29 40.2-11.29 12.65 0 23.75 2.58 33.29 7.74s16.89 11.94 22.03 20.32V79.13h55v180h-55v-25.48c-5.36 8.39-12.82 15.16-22.35 20.32-9.54 5.16-20.64 7.74-33.29 7.74-14.58 0-27.88-3.82-39.88-11.45-12.01-7.63-21.5-18.49-28.47-32.58-6.97-14.08-10.45-30.37-10.45-48.87s3.48-34.73 10.45-48.71Zm112.78 16.01c-7.65-7.97-16.97-11.96-27.96-11.96s-20.32 3.94-27.96 11.8c-7.65 7.87-11.48 18.7-11.48 32.49s3.82 24.73 11.48 32.81c7.65 8.08 16.97 12.12 27.96 12.12s20.31-3.99 27.96-11.96c7.65-7.97 11.48-18.86 11.48-32.65s-3.83-24.68-11.48-32.65ZM829.19 84.29c9.43-5.16 20.47-7.75 33.13-7.75 14.8 0 28.19 3.77 40.2 11.3 12.01 7.54 21.49 18.29 28.46 32.28 6.97 13.99 10.45 30.24 10.45 48.75s-3.49 34.81-10.45 48.91c-6.97 14.1-16.46 24.97-28.46 32.6-12.01 7.64-25.41 11.46-40.2 11.46-12.44 0-23.43-2.58-32.97-7.75s-17-11.83-22.35-20.01v111.05h-55v-266h55v25.5c5.36-8.39 12.75-15.17 22.19-20.34Zm45.13 51.65c-7.65-7.86-17.08-11.8-28.29-11.8s-20.32 3.99-27.96 11.96c-7.65 7.98-11.48 18.86-11.48 32.65s3.82 24.68 11.48 32.65c7.65 7.98 16.97 11.96 27.96 11.96s20.37-4.04 28.13-12.12c7.76-8.08 11.64-19.02 11.64-32.81s-3.83-24.62-11.48-32.49ZM1048.19 84.29c9.43-5.16 20.47-7.75 33.13-7.75 14.8 0 28.19 3.77 40.2 11.3 12.01 7.54 21.49 18.29 28.46 32.28 6.97 13.99 10.45 30.24 10.45 48.75s-3.49 34.81-10.45 48.91c-6.97 14.1-16.46 24.97-28.46 32.6-12.01 7.64-25.41 11.46-40.2 11.46-12.44 0-23.43-2.58-32.97-7.75s-17-11.83-22.35-20.01v111.05h-55v-266h55v25.5c5.36-8.39 12.75-15.17 22.19-20.34Zm45.64 51.65c-7.65-7.86-17.08-11.8-28.29-11.8s-20.32 3.99-27.96 11.96c-7.65 7.98-11.48 18.86-11.48 32.65s3.82 24.68 11.48 32.65c7.65 7.98 16.97 11.96 27.96 11.96s20.37-4.04 28.13-12.12c7.76-8.08 11.64-19.02 11.64-32.81s-3.83-24.62-11.48-32.49Z" class="cls-1"/></g></svg>