<svg xmlns="http://www.w3.org/2000/svg" xmlns:xlink="http://www.w3.org/1999/xlink" viewBox="0 0 510.3 637.32"><defs><style>.cls-1{isolation:isolate;}.cls-2{fill:url(#Degradado_sin_nombre_7);}.cls-3{fill:url(#linear-gradient);}.cls-4{fill:url(#Degradado_sin_nombre_2);}.cls-5{fill:url(#linear-gradient-2);}.cls-6{fill:url(#Degradado_sin_nombre_11);}.cls-7{mix-blend-mode:multiply;fill:url(#Degradado_sin_nombre_8);}</style><linearGradient id="Degradado_sin_nombre_7" x1="451.09" y1="372.55" x2="79.41" y2="13.47" gradientUnits="userSpaceOnUse"><stop offset="0" stop-color="#007bff"/><stop offset="0.99" stop-color="#007bff"/></linearGradient><linearGradient id="linear-gradient" x1="510.33" y1="401.81" x2="509.95" y2="401.5" gradientUnits="userSpaceOnUse"><stop offset="0" stop-color="#ff2300"/><stop offset="0.99" stop-color="#ffaf55"/></linearGradient><linearGradient id="Degradado_sin_nombre_2" x1="632.16" y1="277.85" x2="-135.9" y2="600.7" gradientUnits="userSpaceOnUse"><stop offset="0" stop-color="#6610f2"/><stop offset="0.99" stop-color="#6f42c1"/></linearGradient><linearGradient id="linear-gradient-2" x1="510.53" y1="235.57" x2="509.55" y2="235.98" gradientUnits="userSpaceOnUse"><stop offset="0" stop-color="#15eeff"/><stop offset="0.99" stop-color="#5569ff"/></linearGradient><linearGradient id="Degradado_sin_nombre_11" x1="509.69" y1="510.33" x2="282.9" y2="693.02" gradientUnits="userSpaceOnUse"><stop offset="0" stop-color="#28a745"/><stop offset="0.99" stop-color="#20c997"/></linearGradient><linearGradient id="Degradado_sin_nombre_8" x1="345.07" y1="218.58" x2="442.7" y2="326.63" gradientUnits="userSpaceOnUse"><stop offset="0" stop-color="#fff"/><stop offset="1" stop-color="#007bff"/></linearGradient></defs><g class="cls-1"><g id="Capa_2" data-name="Capa 2"><g id="OBJECTS"><path class="cls-2" d="M509.56,235.64l-179.44,83L96.78,210.75A166.82,166.82,0,0,1,0,59.34V0Z"/><polygon class="cls-3" points="510.3 401.3 510.3 401.99 509.56 401.67 510.3 401.3"/><path class="cls-4" d="M510.3,235.33v166L0,637.32V578A166.83,166.83,0,0,1,96.79,426.58Z"/><polygon class="cls-5" points="510.3 235.32 510.3 236.01 509.56 235.64 510.3 235.32"/><path class="cls-6" d="M510.3,592v45.3H193.83L418.56,533.37C461.38,513.57,510.3,544.84,510.3,592Z"/><polygon class="cls-7" points="359.41 166.21 255.06 283.96 330.12 318.68 509.56 235.64 359.41 166.21"/></g></g></g></svg>