<svg xmlns="http://www.w3.org/2000/svg" viewBox="0 0 1605.57 430.05"><defs><style>.cls-1{isolation:isolate;}.cls-2{font-size:170.07px;font-family:Poppins-Bold, Poppins;font-weight:700;}.cls-2,.cls-3,.cls-4{fill:#f7f7f7;}.cls-4{mix-blend-mode:multiply;}</style></defs><g class="cls-1"><g id="Capa_2" data-name="Capa 2"><g id="OBJECTS"><text class="cls-2" transform="translate(419.87 317.8)">Solutions Dev</text><path class="cls-3" d="M343.84,159,222.76,215,65.31,142.21A112.56,112.56,0,0,1,0,40V0Z"/><polygon class="cls-3" points="344.34 270.79 344.34 271.26 343.84 271.04 344.34 270.79"/><path class="cls-3" d="M344.34,158.8v112L0,430.05V390A112.56,112.56,0,0,1,65.31,287.85Z"/><polygon class="cls-3" points="344.34 158.79 344.34 159.26 343.84 159.01 344.34 158.79"/><path class="cls-3" d="M344.34,399.48v30.57H130.8l151.64-70.14C311.33,346.55,344.34,367.65,344.34,399.48Z"/><polygon class="cls-4" points="242.53 112.15 172.11 191.61 222.76 215.04 343.84 159.01 242.53 112.15"/></g></g></g></svg>