<svg xmlns="http://www.w3.org/2000/svg" xmlns:xlink="http://www.w3.org/1999/xlink" viewBox="0 0 334.92 89.71"><defs><style>.cls-1{isolation:isolate;}.cls-2{font-size:35.48px;font-family:Poppins-Bold, Poppins;font-weight:700;}.cls-3{fill:url(#Degradado_sin_nombre_7);}.cls-4{fill:url(#linear-gradient);}.cls-5{fill:url(#Degradado_sin_nombre_2);}.cls-6{fill:url(#linear-gradient-2);}.cls-7{fill:url(#Degradado_sin_nombre_11);}.cls-8{mix-blend-mode:multiply;fill:url(#Degradado_sin_nombre_8);}</style><linearGradient id="Degradado_sin_nombre_7" x1="63.49" y1="52.44" x2="11.18" y2="1.9" gradientUnits="userSpaceOnUse"><stop offset="0" stop-color="#007bff"/><stop offset="0.99" stop-color="#007bff"/></linearGradient><linearGradient id="linear-gradient" x1="71.83" y1="56.56" x2="71.78" y2="56.51" gradientUnits="userSpaceOnUse"><stop offset="0" stop-color="#ff2300"/><stop offset="0.99" stop-color="#ffaf55"/></linearGradient><linearGradient id="Degradado_sin_nombre_2" x1="88.98" y1="39.11" x2="-19.13" y2="84.55" gradientUnits="userSpaceOnUse"><stop offset="0" stop-color="#6610f2"/><stop offset="0.99" stop-color="#6f42c1"/></linearGradient><linearGradient id="linear-gradient-2" x1="71.86" y1="33.16" x2="71.72" y2="33.22" gradientUnits="userSpaceOnUse"><stop offset="0" stop-color="#15eeff"/><stop offset="0.99" stop-color="#5569ff"/></linearGradient><linearGradient id="Degradado_sin_nombre_11" x1="71.74" y1="71.83" x2="39.82" y2="97.55" gradientUnits="userSpaceOnUse"><stop offset="0" stop-color="#28a745"/><stop offset="0.99" stop-color="#20c997"/></linearGradient><linearGradient id="Degradado_sin_nombre_8" x1="48.57" y1="30.77" x2="62.31" y2="45.98" gradientUnits="userSpaceOnUse"><stop offset="0" stop-color="#fff"/><stop offset="1" stop-color="#007bff"/></linearGradient></defs><g class="cls-1"><g id="Capa_2" data-name="Capa 2"><g id="OBJECTS"><text class="cls-2" transform="translate(87.58 66.29)">Solutions Dev</text><path class="cls-3" d="M71.72,33.17,46.47,44.86,13.62,29.66A23.49,23.49,0,0,1,0,8.35V0Z"/><polygon class="cls-4" points="71.83 56.49 71.83 56.58 71.72 56.54 71.83 56.49"/><path class="cls-5" d="M71.83,33.12V56.49L0,89.71V81.36A23.5,23.5,0,0,1,13.62,60Z"/><polygon class="cls-6" points="71.83 33.12 71.83 33.22 71.72 33.17 71.83 33.12"/><path class="cls-7" d="M71.83,83.33v6.38H27.28L58.92,75.08A9.09,9.09,0,0,1,71.83,83.33Z"/><polygon class="cls-8" points="50.59 23.39 35.9 39.97 46.47 44.86 71.72 33.17 50.59 23.39"/></g></g></g></svg>