<svg xmlns="http://www.w3.org/2000/svg" xmlns:xlink="http://www.w3.org/1999/xlink" viewBox="0 0 254.84 183.76"><defs><style>.cls-1{isolation:isolate;}.cls-2{font-size:36.55px;font-family:Poppins-Bold, Poppins;font-weight:700;}.cls-3{fill:url(#Degradado_sin_nombre_7);}.cls-4{fill:url(#linear-gradient);}.cls-5{fill:url(#Degradado_sin_nombre_2);}.cls-6{fill:url(#linear-gradient-2);}.cls-7{fill:url(#Degradado_sin_nombre_11);}.cls-8{mix-blend-mode:multiply;fill:url(#Degradado_sin_nombre_8);}</style><linearGradient id="Degradado_sin_nombre_7" x1="163.62" y1="67.93" x2="95.85" y2="2.46" gradientUnits="userSpaceOnUse"><stop offset="0" stop-color="#007bff"/><stop offset="0.99" stop-color="#007bff"/></linearGradient><linearGradient id="linear-gradient" x1="174.42" y1="73.26" x2="174.35" y2="73.2" gradientUnits="userSpaceOnUse"><stop offset="0" stop-color="#ff2300"/><stop offset="0.99" stop-color="#ffaf55"/></linearGradient><linearGradient id="Degradado_sin_nombre_2" x1="196.63" y1="50.66" x2="56.59" y2="109.52" gradientUnits="userSpaceOnUse"><stop offset="0" stop-color="#6610f2"/><stop offset="0.99" stop-color="#6f42c1"/></linearGradient><linearGradient id="linear-gradient-2" x1="174.46" y1="42.95" x2="174.28" y2="43.03" gradientUnits="userSpaceOnUse"><stop offset="0" stop-color="#15eeff"/><stop offset="0.99" stop-color="#5569ff"/></linearGradient><linearGradient id="Degradado_sin_nombre_11" x1="174.3" y1="93.05" x2="132.95" y2="126.36" gradientUnits="userSpaceOnUse"><stop offset="0" stop-color="#28a745"/><stop offset="0.99" stop-color="#20c997"/></linearGradient><linearGradient id="Degradado_sin_nombre_8" x1="144.29" y1="39.85" x2="162.09" y2="59.55" gradientUnits="userSpaceOnUse"><stop offset="0" stop-color="#fff"/><stop offset="1" stop-color="#007bff"/></linearGradient></defs><g class="cls-1"><g id="Capa_2" data-name="Capa 2"><g id="OBJECTS"><text class="cls-2" transform="translate(0 161.61)">Solutions Dev</text><path class="cls-3" d="M174.28,43,141.56,58.1,99,38.42a30.41,30.41,0,0,1-17.65-27.6V0Z"/><polygon class="cls-4" points="174.41 73.17 174.41 73.29 174.28 73.23 174.41 73.17"/><path class="cls-5" d="M174.41,42.91V73.17l-93,43V105.38A30.41,30.41,0,0,1,99,77.78Z"/><polygon class="cls-6" points="174.41 42.91 174.41 43.03 174.28 42.96 174.41 42.91"/><path class="cls-7" d="M174.41,107.94v8.26h-57.7l41-19A11.78,11.78,0,0,1,174.41,107.94Z"/><polygon class="cls-8" points="146.9 30.3 127.88 51.77 141.56 58.1 174.28 42.96 146.9 30.3"/></g></g></g></svg>