<svg xmlns="http://www.w3.org/2000/svg" viewBox="0 0 510.3 637.32"><defs><style>.cls-1{isolation:isolate;}.cls-2,.cls-3{fill:#404040;}.cls-3{mix-blend-mode:multiply;}</style></defs><g class="cls-1"><g id="Capa_2" data-name="Capa 2"><g id="OBJECTS"><path class="cls-2" d="M509.56,235.64l-179.44,83L96.78,210.75A166.82,166.82,0,0,1,0,59.34V0Z"/><polygon class="cls-2" points="510.3 401.3 510.3 401.99 509.56 401.67 510.3 401.3"/><path class="cls-2" d="M510.3,235.33v166L0,637.32V578A166.83,166.83,0,0,1,96.79,426.58Z"/><polygon class="cls-2" points="510.3 235.32 510.3 236.01 509.56 235.64 510.3 235.32"/><path class="cls-2" d="M510.3,592v45.3H193.83L418.56,533.37C461.38,513.57,510.3,544.84,510.3,592Z"/><polygon class="cls-3" points="359.41 166.21 255.06 283.96 330.12 318.68 509.56 235.64 359.41 166.21"/></g></g></g></svg>