<svg xmlns="http://www.w3.org/2000/svg" viewBox="0 0 771.54 556.33"><defs><style>.cls-1{isolation:isolate;}.cls-2{font-size:110.66px;font-family:Poppins-Bold, Poppins;font-weight:700;}.cls-2,.cls-3,.cls-4{fill:#404040;}.cls-4{mix-blend-mode:multiply;}</style></defs><g class="cls-1"><g id="Capa_2" data-name="Capa 2"><g id="OBJECTS"><text class="cls-2" transform="translate(0 489.27)">Solutions Dev</text><path class="cls-3" d="M527.63,130.07l-99.05,45.84-128.8-59.58a92.08,92.08,0,0,1-53.42-83.58V0Z"/><polygon class="cls-3" points="528.04 221.52 528.04 221.9 527.63 221.72 528.04 221.52"/><path class="cls-3" d="M528,129.9v91.62L246.36,351.8V319.05a92.09,92.09,0,0,1,53.42-83.58Z"/><polygon class="cls-3" points="528.04 129.9 528.04 130.28 527.63 130.07 528.04 129.9"/><path class="cls-3" d="M528,326.79v25H353.35l124-57.37A35.67,35.67,0,0,1,528,326.79Z"/><polygon class="cls-4" points="444.75 91.75 387.15 156.74 428.58 175.91 527.63 130.07 444.75 91.75"/></g></g></g></svg>