<svg xmlns="http://www.w3.org/2000/svg" viewBox="0 0 699.48 803.51"><defs><style>.cls-1{fill:#404040;}.cls-2{fill:#304ba8;}.cls-3{fill:#fd7e14;}</style></defs><g id="Capa_2" data-name="Capa 2"><g id="OBJECTS"><path class="cls-1" d="M164.58,766.28H87.52l-11.43,35H0L84.58,570h83.6l84.25,231.21H176ZM147,711.75l-20.9-64.33-20.9,64.33Z"/><path class="cls-1" d="M339.62,570v130.3q0,16,7,25.31t22.69,9.3q15.69,0,23.19-9.3T400,700.32V570H472.2v130.3q0,33-13.71,56.33a87.89,87.89,0,0,1-37.56,35.11q-23.83,11.75-53.23,11.75t-52.08-11.75a83.69,83.69,0,0,1-35.44-35q-12.74-23.17-12.73-56.49V570Z"/><path class="cls-1" d="M619.8,801.23l-43.43-83H576v83H503.55V570H611.31q28.08,0,48,10t29.88,27.1q9.94,17.14,10,38.69,0,23.21-12.9,41.15t-37.07,25.8l50.29,88.5ZM576,670h28.74q10.46,0,15.68-4.73t5.22-14.86q0-9.15-5.39-14.37t-15.51-5.23H576Z"/><path class="cls-2" d="M397.43.51a220.25,220.25,0,0,0-196.85,95c-16.05,23.29,1.33,55.09,29.63,55.09h0a34.9,34.9,0,0,0,28.84-14.86A149.26,149.26,0,0,1,387.69,71c76.12,2.72,139.08,64,143.7,140a149.44,149.44,0,0,1-296.2,36L178.26,304a220.39,220.39,0,0,0,204,136.8c126.91,0,228.73-107.22,219.84-236C594.54,95.9,506.27,7.81,397.43.51Z"/><path class="cls-3" d="M421.24,110.41H317.45a10.78,10.78,0,0,0-7.62,18.41l21.81,21.81L124,358.26a92.59,92.59,0,0,0-5.1,125.43l272.9-272.9,21.81,21.82A10.78,10.78,0,0,0,432,225V121.19A10.78,10.78,0,0,0,421.24,110.41Z"/></g></g></svg>