<svg xmlns="http://www.w3.org/2000/svg" xmlns:xlink="http://www.w3.org/1999/xlink" viewBox="0 0 771.54 556.33"><defs><style>.cls-1{isolation:isolate;}.cls-2{font-size:110.66px;fill:#404040;font-family:Poppins-Bold, Poppins;font-weight:700;}.cls-3{fill:url(#Degradado_sin_nombre_7);}.cls-4{fill:url(#linear-gradient);}.cls-5{fill:url(#Degradado_sin_nombre_2);}.cls-6{fill:url(#linear-gradient-2);}.cls-7{fill:url(#Degradado_sin_nombre_11);}.cls-8{mix-blend-mode:multiply;fill:url(#Degradado_sin_nombre_8);}</style><linearGradient id="Degradado_sin_nombre_7" x1="495.36" y1="205.65" x2="290.19" y2="7.43" gradientUnits="userSpaceOnUse"><stop offset="0" stop-color="#007bff"/><stop offset="0.99" stop-color="#007bff"/></linearGradient><linearGradient id="linear-gradient" x1="528.06" y1="221.8" x2="527.85" y2="221.63" gradientUnits="userSpaceOnUse"><stop offset="0" stop-color="#ff2300"/><stop offset="0.99" stop-color="#ffaf55"/></linearGradient><linearGradient id="Degradado_sin_nombre_2" x1="595.31" y1="153.37" x2="171.34" y2="331.58" gradientUnits="userSpaceOnUse"><stop offset="0" stop-color="#6610f2"/><stop offset="0.99" stop-color="#6f42c1"/></linearGradient><linearGradient id="linear-gradient-2" x1="528.17" y1="130.03" x2="527.62" y2="130.26" gradientUnits="userSpaceOnUse"><stop offset="0" stop-color="#15eeff"/><stop offset="0.99" stop-color="#5569ff"/></linearGradient><linearGradient id="Degradado_sin_nombre_11" x1="527.7" y1="281.7" x2="402.52" y2="382.55" gradientUnits="userSpaceOnUse"><stop offset="0" stop-color="#28a745"/><stop offset="0.99" stop-color="#20c997"/></linearGradient><linearGradient id="Degradado_sin_nombre_8" x1="436.83" y1="120.66" x2="490.72" y2="180.3" gradientUnits="userSpaceOnUse"><stop offset="0" stop-color="#fff"/><stop offset="1" stop-color="#007bff"/></linearGradient></defs><g class="cls-1"><g id="Capa_2" data-name="Capa 2"><g id="OBJECTS"><text class="cls-2" transform="translate(0 489.27)">Solutions Dev</text><path class="cls-3" d="M527.63,130.07l-99.05,45.84-128.8-59.58a92.08,92.08,0,0,1-53.42-83.58V0Z"/><polygon class="cls-4" points="528.04 221.52 528.04 221.9 527.63 221.72 528.04 221.52"/><path class="cls-5" d="M528,129.9v91.62L246.36,351.8V319.05a92.09,92.09,0,0,1,53.42-83.58Z"/><polygon class="cls-6" points="528.04 129.9 528.04 130.28 527.63 130.07 528.04 129.9"/><path class="cls-7" d="M528,326.79v25H353.35l124-57.37A35.67,35.67,0,0,1,528,326.79Z"/><polygon class="cls-8" points="444.75 91.75 387.15 156.74 428.58 175.91 527.63 130.07 444.75 91.75"/></g></g></g></svg>