<svg xmlns="http://www.w3.org/2000/svg" data-name="Capa 2" viewBox="0 0 397.25 379.95"><path d="M236.09.4c-64.1-4.3-121.33 26.29-154.63 74.62-12.61 18.3 1.05 43.28 23.27 43.28 9 0 17.56-4.26 22.66-11.67 21.9-31.84 59.13-52.34 101.05-50.84 59.8 2.14 109.25 50.26 112.88 109.99 4.14 68.19-49.89 124.74-117.18 124.74-57.72 0-105.67-41.6-115.5-96.47l-44.72 44.72c25.85 63.06 87.85 107.46 160.22 107.46 99.69 0 179.68-84.23 172.69-185.41C390.93 75.33 321.58 6.14 236.09.4Z" style="fill:#304ba8"/><path d="M254.79 86.73h-81.53c-7.55 0-11.32 9.12-5.99 14.46l17.13 17.13-163.09 163.1c-26.79 26.79-28.53 69.66-4.01 98.53l214.37-214.37 17.13 17.13c5.34 5.34 14.46 1.56 14.46-5.99V95.19c0-4.68-3.79-8.47-8.47-8.47Z" style="fill:#fd7e14"/></svg>